<svg xmlns="http://www.w3.org/2000/svg" viewBox="0 0 128 128" role="img" aria-labelledby="title desc">
  <title id="title">FB AutoReply AI logo</title>
  <desc id="desc">A chat bubble with an AI spark inside a rounded blue and green app icon.</desc>
  <defs>
    <linearGradient id="bg" x1="18" y1="14" x2="110" y2="114" gradientUnits="userSpaceOnUse">
      <stop offset="0" stop-color="#1683ff"/>
      <stop offset="0.52" stop-color="#2a5df5"/>
      <stop offset="1" stop-color="#21c67a"/>
    </linearGradient>
    <linearGradient id="bubble" x1="32" y1="30" x2="94" y2="94" gradientUnits="userSpaceOnUse">
      <stop offset="0" stop-color="#ffffff"/>
      <stop offset="1" stop-color="#e8f4ff"/>
    </linearGradient>
    <filter id="shadow" x="-20%" y="-20%" width="140%" height="140%">
      <feDropShadow dx="0" dy="8" stdDeviation="7" flood-color="#08244a" flood-opacity="0.35"/>
    </filter>
  </defs>

  <rect width="128" height="128" rx="30" fill="#0f172a"/>
  <rect x="8" y="8" width="112" height="112" rx="26" fill="url(#bg)"/>
  <path d="M26 60c0-20.4 16.8-36 39.5-36S105 39.6 105 60 88.2 96 65.5 96c-5.3 0-10.4-.9-15-2.5L31.8 102a4.2 4.2 0 0 1-5.6-5.3l6.7-17.2A34.8 34.8 0 0 1 26 60Z" fill="url(#bubble)" filter="url(#shadow)"/>
  <path d="M44 62.8c8.6-13 15-19.5 19.2-19.5 3.2 0 5.7 2.2 7.5 6.5l2.8 6.7c.7 1.7 1.5 2.6 2.5 2.6 1.5 0 4.1-2.7 7.9-8.1" fill="none" stroke="#1683ff" stroke-width="8" stroke-linecap="round" stroke-linejoin="round"/>
  <path d="M50.5 75.5h29" fill="none" stroke="#21c67a" stroke-width="7" stroke-linecap="round"/>
  <path d="M88 25.8 91.5 34l8.7 3.3-8.7 3.3L88 48.8l-3.5-8.2-8.7-3.3 8.7-3.3L88 25.8Z" fill="#ffffff"/>
</svg>
